<svg width="100%" height="100%" id="svg" viewBox="0 0 1440 590" xmlns="http://www.w3.org/2000/svg" class="transition duration-300 ease-in-out delay-150"><path d="M 0,600 C 0,600 0,200 0,200 C 85.13875598086128,159.3205741626794 170.27751196172255,118.64114832535884 272,144 C 373.72248803827745,169.35885167464116 492.02870813397124,260.75598086124404 577,266 C 661.9712918660288,271.24401913875596 713.6076555023924,190.33492822966505 816,165 C 918.3923444976076,139.66507177033495 1071.5406698564593,169.9043062200957 1184,185 C 1296.4593301435407,200.0956937799043 1368.2296650717703,200.04784688995215 1440,200 C 1440,200 1440,600 1440,600 Z" stroke="none" stroke-width="0" fill="#f9ca24" fill-opacity="0.53" class="transition-all duration-300 ease-in-out delay-150 path-0" transform="rotate(-180 720 300)"></path><path d="M 0,600 C 0,600 0,400 0,400 C 107.13875598086125,391.86602870813397 214.2775119617225,383.732057416268 313,396 C 411.7224880382775,408.267942583732 502.02870813397135,440.93779904306217 598,448 C 693.9712918660287,455.06220095693783 795.6076555023924,436.51674641148327 893,432 C 990.3923444976076,427.48325358851673 1083.5406698564593,436.9952153110048 1174,434 C 1264.4593301435407,431.0047846889952 1352.2296650717703,415.5023923444976 1440,400 C 1440,400 1440,600 1440,600 Z" stroke="none" stroke-width="0" fill="#f9ca24" fill-opacity="1" class="transition-all duration-300 ease-in-out delay-150 path-1" transform="rotate(-180 720 300)"></path></svg>