<svg width="100%" height="100%" id="svg" viewBox="0 0 1440 590" xmlns="http://www.w3.org/2000/svg" class="transition duration-300 ease-in-out delay-150"><path d="M 0,600 C 0,600 0,200 0,200 C 84.47846889952152,244.28708133971293 168.95693779904303,288.57416267942585 262,266 C 355.04306220095697,243.42583732057415 456.6507177033493,153.99043062200957 569,126 C 681.3492822966507,98.00956937799045 804.44019138756,131.4641148325359 912,166 C 1019.55980861244,200.5358851674641 1111.5885167464112,236.1531100478469 1197,242 C 1282.4114832535888,247.8468899521531 1361.2057416267944,223.92344497607655 1440,200 C 1440,200 1440,600 1440,600 Z" stroke="none" stroke-width="0" fill="#ffffff" fill-opacity="0.53" class="transition-all duration-300 ease-in-out delay-150 path-0" transform="rotate(-180 720 300)"></path><path d="M 0,600 C 0,600 0,400 0,400 C 97.10047846889952,398.2488038277512 194.20095693779905,396.49760765550235 304,400 C 413.79904306220095,403.50239234449765 536.2966507177033,412.25837320574163 617,396 C 697.7033492822967,379.74162679425837 736.6124401913876,338.46889952153106 811,346 C 885.3875598086124,353.53110047846894 995.2535885167465,409.86602870813397 1106,427 C 1216.7464114832535,444.13397129186603 1328.3732057416269,422.066985645933 1440,400 C 1440,400 1440,600 1440,600 Z" stroke="none" stroke-width="0" fill="#ffffff" fill-opacity="1" class="transition-all duration-300 ease-in-out delay-150 path-1" transform="rotate(-180 720 300)"></path></svg>